mtllib materials.mtl
v -0.007451251 0.1445804 0.008124173
v 0.04018435 0.13744 0.02281398
v 0.02633893 0.1355165 0.04434568
v 0.04138626 0.1389403 -0.002785146
v 0.0296226 0.1396157 -0.02559239
v 0.008045435 0.139285 -0.0394966
v -0.01756364 0.1380368 -0.04077211
v -0.04034272 0.1362057 -0.0290772
v -0.05418813 0.1342822 -0.007545501
v -0.05539005 0.1327819 0.01805359
v -0.04362638 0.1321065 0.04086083
v -0.02204922 0.1324372 0.05476505
v 0.003559873 0.1336854 0.05604059
v 0.08297312 0.1137223 0.03475201
v 0.05695225 0.1101074 0.07521838
v 0.08523196 0.1165421 -0.01335856
v 0.06312354 0.1178112 -0.05622214
v 0.02257173 0.1171896 -0.08235347
v -0.02555759 0.114844 -0.08475071
v -0.06836825 0.1114025 -0.06277144
v -0.09438913 0.1077876 -0.02230504
v -0.09664796 0.1049678 0.02580553
v -0.07453953 0.1036987 0.06866908
v -0.03398773 0.1043203 0.09480041
v 0.01414163 0.106666 0.09719765
v 0.1157541 0.07628798 0.04249853
v 0.08069628 0.07141769 0.09701872
v 0.1187975 0.08008718 -0.02232072
v 0.08901083 0.08179712 -0.08007067
v 0.03437555 0.08095968 -0.1152773
v -0.03046891 0.0777992 -0.1185071
v -0.08814755 0.07316267 -0.08889452
v -0.1232054 0.06829226 -0.0343743
v -0.1262487 0.06449318 0.03044492
v -0.09646209 0.06278324 0.08819485
v -0.04182681 0.06362069 0.1234015
v 0.0230177 0.06678116 0.1266313
v 0.1345735 0.02965224 0.04511905
v 0.09470716 0.02411389 0.1071171
v 0.1380342 0.0339725 -0.02859068
v 0.1041621 0.03591692 -0.0942615
v 0.04203317 0.03496468 -0.134297
v -0.03170523 0.03137076 -0.1379698
v -0.09729497 0.02609825 -0.1042956
v -0.1371613 0.02055991 -0.04229751
v -0.140622 0.01623976 0.03141218
v -0.1067499 0.01429522 0.09708297
v -0.04462098 0.01524758 0.1371185
v 0.02911749 0.01884139 0.1407912
v 0.1371613 -0.02055991 0.04229754
v 0.09729496 -0.02609825 0.1042956
v 0.140622 -0.01623976 -0.03141215
v 0.1067499 -0.01429522 -0.09708297
v 0.04462096 -0.01524758 -0.1371185
v -0.02911745 -0.01884139 -0.1407912
v -0.09470717 -0.02411389 -0.1071171
v -0.1345735 -0.02965236 -0.04511899
v -0.1380342 -0.0339725 0.02859068
v -0.1041621 -0.03591692 0.09426147
v -0.04203317 -0.03496468 0.134297
v 0.03170529 -0.03137076 0.1379697
v 0.1232054 -0.06829238 0.03437436
v 0.08814755 -0.07316267 0.08889455
v 0.1262487 -0.06449318 -0.03044489
v 0.0964621 -0.06278324 -0.08819485
v 0.0418268 -0.06362069 -0.1234015
v -0.02301766 -0.06678116 -0.1266313
v -0.0806963 -0.07141769 -0.09701869
v -0.1157541 -0.07628798 -0.04249847
v -0.1187975 -0.08008718 0.02232075
v -0.08901083 -0.08179712 0.08007067
v -0.03437556 -0.08095968 0.1152773
v 0.03046896 -0.0777992 0.1185071
v 0.09438914 -0.1077876 0.02230507
v 0.06836824 -0.1114025 0.06277144
v 0.09664798 -0.1049678 -0.0258055
v 0.07453953 -0.1036987 -0.06866911
v 0.03398772 -0.1043203 -0.09480044
v -0.0141416 -0.106666 -0.09719765
v -0.05695226 -0.1101074 -0.07521841
v -0.08297314 -0.1137223 -0.03475201
v -0.08523197 -0.1165421 0.01335853
v -0.06312354 -0.1178112 0.05622214
v -0.02257174 -0.1171896 0.08235347
v 0.02555762 -0.114844 0.08475071
v 0.05418812 -0.1342822 0.007545471
v 0.0403427 -0.1362057 0.02907717
v 0.05539003 -0.1327819 -0.01805359
v 0.04362637 -0.1321065 -0.04086083
v 0.02204922 -0.1324372 -0.05476502
v -0.003559858 -0.1336854 -0.05604056
v -0.02633892 -0.1355165 -0.04434565
v -0.04018433 -0.13744 -0.02281395
v -0.04138625 -0.1389403 0.002785146
v -0.02962258 -0.1396157 0.02559239
v -0.008045435 -0.139285 0.03949654
v 0.01756366 -0.1380367 0.04077208
v 0.007451251 -0.1445804 -0.008124173
vn -0.05138798 0.9971058 0.05602879
vn -0.05138798 0.9971058 0.05602879
vn -0.05138798 0.9971058 0.05602879
vn -0.05138798 0.9971058 0.05602879
vn -0.05138798 0.9971058 0.05602879
vn -0.05138798 0.9971058 0.05602879
vn -0.05138798 0.9971058 0.05602879
vn -0.05138798 0.9971058 0.05602879
vn -0.05138798 0.9971058 0.05602879
vn -0.05138798 0.9971058 0.05602879
vn -0.05138798 0.9971058 0.05602879
vn -0.05138798 0.9971058 0.05602879
vn 0.1816478 0.9345966 0.3058321
vn 0.2771335 0.9478618 0.1573376
vn 0.2854225 0.9582093 -0.01920797
vn 0.2042938 0.9628666 -0.1764993
vn 0.05548577 0.9605857 -0.2723903
vn -0.1211286 0.9519778 -0.281187
vn -0.2782256 0.9393494 -0.2005325
vn -0.3737113 0.9260842 -0.05203785
vn -0.3820003 0.9157367 0.1245077
vn -0.3008716 0.9110794 0.281799
vn -0.1520636 0.9133603 0.3776899
vn 0.02455085 0.9219682 0.3864867
vn 0.3927742 0.7593612 0.5187477
vn 0.5722285 0.7842915 0.2396692
vn 0.5878068 0.8037386 -0.09212795
vn 0.4353347 0.8124914 -0.3877389
vn 0.1556671 0.8082048 -0.5679551
vn -0.1762592 0.7920272 -0.5844876
vn -0.4715051 0.7682934 -0.4329065
vn -0.6509595 0.7433631 -0.153828
vn -0.6665377 0.7239162 0.1779691
vn -0.5140657 0.7151634 0.47358
vn -0.2343982 0.71945 0.6537961
vn 0.09752851 0.7356275 0.6703286
vn 0.5565261 0.4925356 0.6690945
vn 0.7983044 0.5261242 0.2930931
vn 0.8192928 0.5523251 -0.1539359
vn 0.6138678 0.5641177 -0.5522115
vn 0.2370727 0.5583423 -0.795016
vn -0.2101304 0.5365463 -0.8172902
vn -0.6079141 0.5045701 -0.6130657
vn -0.8496924 0.4709815 -0.2370642
vn -0.8706809 0.4447806 0.2099648
vn -0.6652558 0.432988 0.6082402
vn -0.2884608 0.4387633 0.8510447
vn 0.1587428 0.4605593 0.8733189
vn 0.6531528 0.166303 0.7387387
vn 0.9280928 0.2044985 0.3111657
vn 0.9519601 0.2342931 -0.197177
vn 0.7183594 0.2477031 -0.6500793
vn 0.2898838 0.2411356 -0.9261863
vn -0.2186568 0.2163502 -0.9515156
vn -0.6709998 0.1799881 -0.71928
vn -0.9459397 0.1417925 -0.2917069
vn -0.969807 0.111998 0.2166356
vn -0.7362063 0.09858788 0.6695378
vn -0.3077308 0.1051554 0.9456449
vn 0.2008103 0.1299409 0.970974
vn 0.6709997 -0.1799882 0.7192801
vn 0.9459397 -0.1417926 0.2917071
vn 0.969807 -0.1119981 -0.2166355
vn 0.7362063 -0.09858798 -0.6695378
vn 0.3077307 -0.1051555 -0.9456449
vn -0.20081 -0.129941 -0.9709741
vn -0.6531529 -0.1663031 -0.7387386
vn -0.9280928 -0.2044986 -0.3111655
vn -0.9519601 -0.2342931 0.197177
vn -0.7183595 -0.2477033 0.6500792
vn -0.2898839 -0.2411357 0.9261862
vn 0.2186571 -0.2163502 0.9515155
vn 0.6079141 -0.5045702 0.6130657
vn 0.8496922 -0.4709816 0.2370643
vn 0.8706807 -0.4447807 -0.2099647
vn 0.6652558 -0.432988 -0.6082402
vn 0.2884607 -0.4387634 -0.8510448
vn -0.1587425 -0.4605594 -0.873319
vn -0.5565261 -0.4925357 -0.6690944
vn -0.7983043 -0.5261243 -0.2930929
vn -0.8192927 -0.5523252 0.153936
vn -0.6138678 -0.5641178 0.5522114
vn -0.2370728 -0.5583425 0.7950159
vn 0.2101307 -0.5365464 0.81729
vn 0.4715051 -0.7682936 0.4329066
vn 0.6509595 -0.7433631 0.1538281
vn 0.6665377 -0.7239161 -0.177969
vn 0.5140657 -0.7151634 -0.47358
vn 0.2343981 -0.71945 -0.6537961
vn -0.09752829 -0.7356275 -0.6703287
vn -0.3927742 -0.7593612 -0.5187476
vn -0.5722286 -0.7842916 -0.239669
vn -0.5878068 -0.8037385 0.09212798
vn -0.4353347 -0.8124914 0.3877389
vn -0.1556672 -0.8082047 0.567955
vn 0.1762595 -0.7920272 0.5844876
vn 0.2782255 -0.9393494 0.2005324
vn 0.3737112 -0.9260843 0.05203788
vn 0.3820002 -0.9157367 -0.1245076
vn 0.3008715 -0.9110795 -0.2817989
vn 0.1520636 -0.9133604 -0.3776898
vn -0.02455072 -0.9219682 -0.3864866
vn -0.1816477 -0.9345967 -0.3058321
vn -0.2771333 -0.9478618 -0.1573375
vn -0.2854224 -0.9582093 0.01920796
vn -0.2042937 -0.9628666 0.1764992
vn -0.05548579 -0.9605858 0.2723902
vn 0.1211286 -0.9519778 0.2811869
vt -0.04736045 0.009493461
vt -0.05043323 0.01338609
vt -0.05196788 0.01132819
vt -0.04736045 0.009493461
vt -0.04807524 0.01440097
vt -0.05043323 0.01338609
vt -0.04736045 0.009493461
vt -0.04552572 0.01410088
vt -0.04807524 0.01440097
vt -0.04736045 0.009493461
vt -0.04346781 0.01256624
vt -0.04552572 0.01410088
vt -0.04736045 0.009493461
vt -0.04245294 0.01020825
vt -0.04346781 0.01256624
vt -0.04736045 0.009493461
vt -0.04275303 0.007658729
vt -0.04245294 0.01020825
vt -0.04736045 0.009493461
vt -0.04428767 0.005600826
vt -0.04275303 0.007658729
vt -0.04736045 0.009493461
vt -0.04664566 0.00458595
vt -0.04428767 0.005600826
vt -0.04736045 0.009493461
vt -0.04919518 0.004886038
vt -0.04664566 0.00458595
vt -0.04736045 0.009493461
vt -0.05125309 0.00642068
vt -0.04919518 0.004886038
vt -0.04736045 0.009493461
vt -0.05226796 0.008778672
vt -0.05125309 0.00642068
vt -0.04736045 0.009493461
vt -0.05196788 0.01132819
vt -0.05226796 0.008778672
vt 0.01058021 -0.01136653
vt 0.01174523 -0.009090313
vt 0.007937013 -0.005975416
vt 0.005747477 -0.0102533
vt -0.005420454 -0.03841432
vt -0.003242565 -0.03707444
vt -0.004878699 -0.03243459
vt -0.008971789 -0.03495273
vt -0.03724159 -0.04969458
vt -0.03469039 -0.04986728
vt -0.03333025 -0.04513915
vt -0.03812494 -0.04481459
vt -0.07188261 -0.0374818
vt -0.06994445 -0.03914973
vt -0.06602091 -0.0361814
vt -0.06966346 -0.03304671
vt -0.09371723 -0.01117942
vt -0.09302892 -0.01364207
vt -0.0881179 -0.01334691
vt -0.08941153 -0.00871863
vt -0.1002918 0.01603815
vt -0.1009116 0.01355738
vt -0.09649742 0.01138483
vt -0.0953325 0.01604717
vt -0.09470932 0.0392637
vt -0.0964043 0.03734915
vt -0.09349135 0.03338432
vt -0.09030584 0.03698251
vt -0.07887019 0.05690743
vt -0.08125278 0.05597911
vt -0.08047376 0.05112131
vt -0.07599597 0.05286596
vt -0.05485557 0.06598178
vt -0.0573966 0.06626748
vt -0.05896514 0.06160434
vt -0.05418956 0.06106741
vt -0.02757885 0.06269346
vt -0.02969092 0.06413484
vt -0.03325897 0.06074749
vt -0.02928956 0.05803856
vt -0.004030869 0.04612525
vt -0.005240511 0.04837807
vt -0.00996845 0.04701729
vt -0.007695065 0.04278336
vt 0.009981798 0.01952364
vt 0.009933637 0.02208023
vt 0.005105761 0.02302719
vt 0.005196271 0.01822237
vt 0.07133946 -0.01118261
vt 0.07245708 -0.006558383
vt 0.06788891 -0.004780397
vt 0.06638315 -0.0110106
vt 0.0541621 -0.06654785
vt 0.05728755 -0.06296118
vt 0.05405536 -0.05927576
vt 0.04984445 -0.06410806
vt -0.01760064 -0.1044519
vt -0.0128565 -0.1040974
vt -0.01256526 -0.09920409
vt -0.01895703 -0.09968171
vt -0.1089038 -0.0597008
vt -0.1058698 -0.06336512
vt -0.1017102 -0.06077145
vt -0.1057979 -0.05583453
vt -0.1370805 -0.0007708247
vt -0.1367244 -0.005514846
vt -0.131831 -0.005804396
vt -0.1323108 0.0005872048
vt -0.1392258 0.03618653
vt -0.140829 0.03170746
vt -0.136476 0.02945354
vt -0.1343159 0.03548818
vt -0.129567 0.06451248
vt -0.1327203 0.06095026
vt -0.1295169 0.05723978
vt -0.1252685 0.06203916
vt -0.1054309 0.09182914
vt -0.1097629 0.08986293
vt -0.1083516 0.08516851
vt -0.1025151 0.08781758
vt -0.06207803 0.1128635
vt -0.06682666 0.1131516
vt -0.0677747 0.1083422
vt -0.06137688 0.107954
vt -0.007976906 0.1117087
vt -0.01198397 0.1142731
vt -0.01515434 0.1105344
vt -0.009755642 0.1070794
vt 0.03677315 0.08412002
vt 0.03431157 0.08819103
vt 0.02981549 0.08623794
vt 0.03313197 0.08075307
vt 0.06321342 0.04036665
vt 0.06251253 0.04507211
vt 0.05761102 0.04500429
vt 0.05855534 0.03866465
vt 0.1216504 0.01126823
vt 0.1214574 0.01760007
vt 0.1165379 0.01766057
vt 0.1167574 0.01046026
vt 0.1240169 -0.0422333
vt 0.1254008 -0.03605151
vt 0.1206501 -0.03477249
vt 0.1190764 -0.04180216
vt 0.05973167 -0.1319481
vt 0.06491871 -0.1283116
vt 0.06226925 -0.124166
vt 0.05637076 -0.1283013
vt -0.1572769 -0.003424967
vt -0.1560469 -0.009639194
vt -0.1511843 -0.008891134
vt -0.152583 -0.001824575
vt -0.1598168 0.04264139
vt -0.160886 0.03639748
vt -0.1560766 0.03536057
vt -0.1548608 0.04246088
vt -0.1583653 0.05941895
vt -0.1608093 0.05357461
vt -0.1563556 0.05148416
vt -0.1535764 0.0581301
vt -0.1518396 0.07554965
vt -0.1556541 0.07049212
vt -0.1518565 0.06736435
vt -0.1475187 0.07311555
vt -0.1299317 0.1048708
vt -0.1352649 0.1014523
vt -0.1327893 0.09720057
vt -0.1267247 0.101088
vt -0.07103609 0.1437219
vt -0.07736628 0.1434805
vt -0.07738915 0.1385607
vt -0.07019074 0.1388352
vt 0.01596563 0.1481847
vt 0.01061519 0.1515762
vt 0.00780596 0.1475372
vt 0.01389025 0.1436805
vt 0.07678659 0.1111318
vt 0.07343724 0.1165087
vt 0.06915389 0.1140883
vt 0.07296264 0.1079739
vt 0.1072779 0.06205767
vt 0.1056493 0.06817953
vt 0.1008451 0.06711911
vt 0.1026971 0.06015759
vt 0.1515726 0.04309367
vt 0.1495579 0.04995141
vt 0.1448698 0.04833385
vt 0.1468846 0.0414761
vt 0.1594073 0.03021828
vt 0.1570579 0.0369687
vt 0.1524549 0.03512263
vt 0.1548044 0.02837222
vt 0.1289113 0.1093021
vt 0.1231845 0.113579
vt 0.1204049 0.1094719
vt 0.1261317 0.105195
vt -0.1184654 0.1270669
vt -0.1224413 0.1211272
vt -0.1181964 0.118563
vt -0.1142204 0.1245027
vt -0.1490083 0.09164865
vt -0.1516992 0.08502694
vt -0.147023 0.08337545
vt -0.1443321 0.08999715
vt -0.1575061 0.07452361
vt -0.1602579 0.06792697
vt -0.1555971 0.06623245
vt -0.1528453 0.07282908
vt -0.1603031 0.06781584
vt -0.1637093 0.06153206
vt -0.1592442 0.05937391
vt -0.155838 0.0656577
vt -0.1517598 0.08674662
vt -0.1566097 0.08149619
vt -0.1528142 0.07830413
vt -0.1479644 0.08355456
vt -0.08625871 0.151625
vt -0.09325389 0.1501569
vt -0.09201077 0.1453559
vt -0.08501558 0.146824
vt 0.05268682 0.1624909
vt 0.04696193 0.1667704
vt 0.04418051 0.1626645
vt 0.04990542 0.1583851
vt 0.1161164 0.1162791
vt 0.1126036 0.1225039
vt 0.1084025 0.1198685
vt 0.1119153 0.1136437
vt 0.1394822 0.07532354
vt 0.1370572 0.08204716
vt 0.1324753 0.08014956
vt 0.1349004 0.07342594
vt 0.1603031 0.06781586
vt 0.1568969 0.07409964
vt 0.1528427 0.07118358
vt 0.155838 0.06565771
vt 0.1517598 0.08674662
vt 0.14691 0.09199705
vt 0.1436995 0.08817171
vt 0.1479644 0.08355455
vt 0.08625872 0.151625
vt 0.07926354 0.1530931
vt 0.07886413 0.1481151
vt 0.08501559 0.146824
vt -0.05268682 0.1624909
vt -0.05841172 0.1582115
vt -0.05493981 0.1546218
vt -0.04990541 0.158385
vt -0.1161164 0.1162791
vt -0.1196292 0.1100543
vt -0.1150044 0.1081696
vt -0.1119153 0.1136436
vt -0.1394822 0.07532357
vt -0.1419072 0.06859995
vt -0.1370329 0.06751331
vt -0.1349003 0.07342596
vt -0.1515726 0.04309366
vt -0.1535874 0.03623592
vt -0.1486563 0.03544549
vt -0.1468846 0.04147609
vt -0.1594073 0.03021827
vt -0.1617567 0.02346786
vt -0.1568705 0.02243599
vt -0.1548044 0.0283722
vt -0.1289113 0.1093021
vt -0.1346381 0.1050252
vt -0.1311677 0.1014339
vt -0.1261317 0.1051949
vt 0.1184654 0.1270669
vt 0.1144894 0.1330065
vt 0.110724 0.1297259
vt 0.1142204 0.1245027
vt 0.1490083 0.09164865
vt 0.1463174 0.09827035
vt 0.1419657 0.09582017
vt 0.1443321 0.08999714
vt 0.1575061 0.07452358
vt 0.1547543 0.08112021
vt 0.1504254 0.07863002
vt 0.1528453 0.07282905
vt 0.1518396 0.07554965
vt 0.148025 0.08060717
vt 0.1446874 0.07686938
vt 0.1475187 0.07311556
vt 0.1299317 0.1048708
vt 0.1245985 0.1082894
vt 0.1227663 0.1036254
vt 0.1267247 0.101088
vt 0.07103609 0.1437219
vt 0.06470592 0.1439633
vt 0.0654923 0.1390143
vt 0.07019074 0.1388352
vt -0.01596563 0.1481846
vt -0.02131607 0.1447931
vt -0.01786149 0.1411632
vt -0.01389025 0.1436805
vt -0.07678659 0.1111317
vt -0.08013595 0.1057548
vt -0.07544862 0.103983
vt -0.07296263 0.1079739
vt -0.1072779 0.06205769
vt -0.1089065 0.05593583
vt -0.1039058 0.0556138
vt -0.102697 0.06015762
vt -0.1216504 0.01126821
vt -0.1218434 0.00493637
vt -0.1169006 0.005760583
vt -0.1167573 0.01046025
vt -0.1240169 -0.04223334
vt -0.1226331 -0.04841512
vt -0.1180493 -0.04639048
vt -0.1190764 -0.0418022
vt -0.05973155 -0.1319481
vt -0.05454451 -0.1355846
vt -0.0525207 -0.1310004
vt -0.05637066 -0.1283013
vt 0.1572769 -0.003425008
vt 0.1585069 0.002789215
vt 0.1534959 0.002787747
vt 0.152583 -0.001824621
vt 0.1598168 0.04264136
vt 0.1587477 0.04888527
vt 0.1540673 0.04709525
vt 0.1548608 0.04246085
vt 0.1583653 0.05941895
vt 0.1559212 0.06526329
vt 0.1517624 0.06246793
vt 0.1535764 0.0581301
vt 0.129567 0.06451248
vt 0.1264137 0.0680747
vt 0.1235906 0.06393457
vt 0.1252685 0.06203916
vt 0.1054309 0.09182914
vt 0.1010989 0.09379535
vt 0.1002101 0.08886378
vt 0.1025151 0.08781758
vt 0.06207804 0.1128635
vt 0.05732939 0.1125754
vt 0.05885018 0.1078008
vt 0.06137688 0.107954
vt 0.007976909 0.1117087
vt 0.003969847 0.1091443
vt 0.00762353 0.1057149
vt 0.009755642 0.1070794
vt -0.03677316 0.08412002
vt -0.03923475 0.080049
vt -0.03444176 0.07858692
vt -0.03313198 0.08075307
vt -0.06321341 0.04036669
vt -0.06391431 0.03566123
vt -0.05892826 0.03616096
vt -0.05855532 0.03866468
vt -0.07133943 -0.01118262
vt -0.0702218 -0.01580685
vt -0.06578845 -0.01347111
vt -0.06638312 -0.01101061
vt -0.05416207 -0.06654786
vt -0.05103663 -0.07013453
vt -0.04818142 -0.0660165
vt -0.04984443 -0.06410808
vt 0.01760064 -0.1044519
vt 0.02234478 -0.1048064
vt 0.02148134 -0.09987034
vt 0.01895703 -0.09968172
vt 0.1089038 -0.05970081
vt 0.1119378 -0.05603649
vt 0.1074123 -0.05388479
vt 0.1057979 -0.05583452
vt 0.1370805 -0.0007708378
vt 0.1374367 0.003973188
vt 0.1325003 0.003111435
vt 0.1323108 0.0005871941
vt 0.1392258 0.03618656
vt 0.1376225 0.04066563
vt 0.1334628 0.03787146
vt 0.1343159 0.0354882
vt 0.09470931 0.03926369
vt 0.09301434 0.04117824
vt 0.09030582 0.03698249
vt 0.07887019 0.0569074
vt 0.07648762 0.05783572
vt 0.07599597 0.05286594
vt 0.05485557 0.06598176
vt 0.05231454 0.06569608
vt 0.05418956 0.06106739
vt 0.02757885 0.06269343
vt 0.02546678 0.06125205
vt 0.02928957 0.05803854
vt 0.004030881 0.04612523
vt 0.00282124 0.04387241
vt 0.00769508 0.04278334
vt -0.009981776 0.01952365
vt -0.01002994 0.01696706
vt -0.005196248 0.01822238
vt -0.01058019 -0.01136653
vt -0.009415161 -0.01364275
vt -0.005747457 -0.01025331
vt 0.005420475 -0.03841431
vt 0.007598361 -0.03975418
vt 0.008971813 -0.03495272
vt 0.0372416 -0.04969456
vt 0.0397928 -0.04952187
vt 0.03812495 -0.04481457
vt 0.0718826 -0.03748178
vt 0.07382075 -0.03581385
vt 0.06966345 -0.0330467
vt 0.09371721 -0.01117942
vt 0.09440555 -0.008716767
vt 0.08941151 -0.008718635
vt 0.1002918 0.01603817
vt 0.09967193 0.01851894
vt 0.09533249 0.01604718
o group1047970785
g mesh1047970785
usemtl mat24
f 3/3/1 2/2/1 1/1/1
f 2/6/2 4/5/2 1/4/2
f 4/9/3 5/8/3 1/7/3
f 5/12/4 6/11/4 1/10/4
f 6/15/5 7/14/5 1/13/5
f 7/18/6 8/17/6 1/16/6
f 8/21/7 9/20/7 1/19/7
f 9/24/8 10/23/8 1/22/8
f 10/27/9 11/26/9 1/25/9
f 11/30/10 12/29/10 1/28/10
f 12/33/11 13/32/11 1/31/11
f 13/36/12 3/35/12 1/34/12
f 15/40/13 14/39/13 2/38/13 3/37/13
f 14/44/14 16/43/14 4/42/14 2/41/14
f 16/48/15 17/47/15 5/46/15 4/45/15
f 17/52/16 18/51/16 6/50/16 5/49/16
f 18/56/17 19/55/17 7/54/17 6/53/17
f 19/60/18 20/59/18 8/58/18 7/57/18
f 20/64/19 21/63/19 9/62/19 8/61/19
f 21/68/20 22/67/20 10/66/20 9/65/20
f 22/72/21 23/71/21 11/70/21 10/69/21
f 23/76/22 24/75/22 12/74/22 11/73/22
f 24/80/23 25/79/23 13/78/23 12/77/23
f 25/84/24 15/83/24 3/82/24 13/81/24
f 27/88/25 26/87/25 14/86/25 15/85/25
f 26/92/26 28/91/26 16/90/26 14/89/26
f 28/96/27 29/95/27 17/94/27 16/93/27
f 29/100/28 30/99/28 18/98/28 17/97/28
f 30/104/29 31/103/29 19/102/29 18/101/29
f 31/108/30 32/107/30 20/106/30 19/105/30
f 32/112/31 33/111/31 21/110/31 20/109/31
f 33/116/32 34/115/32 22/114/32 21/113/32
f 34/120/33 35/119/33 23/118/33 22/117/33
f 35/124/34 36/123/34 24/122/34 23/121/34
f 36/128/35 37/127/35 25/126/35 24/125/35
f 37/132/36 27/131/36 15/130/36 25/129/36
f 39/136/37 38/135/37 26/134/37 27/133/37
f 38/140/38 40/139/38 28/138/38 26/137/38
f 40/144/39 41/143/39 29/142/39 28/141/39
f 41/148/40 42/147/40 30/146/40 29/145/40
f 42/152/41 43/151/41 31/150/41 30/149/41
f 43/156/42 44/155/42 32/154/42 31/153/42
f 44/160/43 45/159/43 33/158/43 32/157/43
f 45/164/44 46/163/44 34/162/44 33/161/44
f 46/168/45 47/167/45 35/166/45 34/165/45
f 47/172/46 48/171/46 36/170/46 35/169/46
f 48/176/47 49/175/47 37/174/47 36/173/47
f 49/180/48 39/179/48 27/178/48 37/177/48
f 51/184/49 50/183/49 38/182/49 39/181/49
f 50/188/50 52/187/50 40/186/50 38/185/50
f 52/192/51 53/191/51 41/190/51 40/189/51
f 53/196/52 54/195/52 42/194/52 41/193/52
f 54/200/53 55/199/53 43/198/53 42/197/53
f 55/204/54 56/203/54 44/202/54 43/201/54
f 56/208/55 57/207/55 45/206/55 44/205/55
f 57/212/56 58/211/56 46/210/56 45/209/56
f 58/216/57 59/215/57 47/214/57 46/213/57
f 59/220/58 60/219/58 48/218/58 47/217/58
f 60/224/59 61/223/59 49/222/59 48/221/59
f 61/228/60 51/227/60 39/226/60 49/225/60
f 63/232/61 62/231/61 50/230/61 51/229/61
f 62/236/62 64/235/62 52/234/62 50/233/62
f 64/240/63 65/239/63 53/238/63 52/237/63
f 65/244/64 66/243/64 54/242/64 53/241/64
f 66/248/65 67/247/65 55/246/65 54/245/65
f 67/252/66 68/251/66 56/250/66 55/249/66
f 68/256/67 69/255/67 57/254/67 56/253/67
f 69/260/68 70/259/68 58/258/68 57/257/68
f 70/264/69 71/263/69 59/262/69 58/261/69
f 71/268/70 72/267/70 60/266/70 59/265/70
f 72/272/71 73/271/71 61/270/71 60/269/71
f 73/276/72 63/275/72 51/274/72 61/273/72
f 75/280/73 74/279/73 62/278/73 63/277/73
f 74/284/74 76/283/74 64/282/74 62/281/74
f 76/288/75 77/287/75 65/286/75 64/285/75
f 77/292/76 78/291/76 66/290/76 65/289/76
f 78/296/77 79/295/77 67/294/77 66/293/77
f 79/300/78 80/299/78 68/298/78 67/297/78
f 80/304/79 81/303/79 69/302/79 68/301/79
f 81/308/80 82/307/80 70/306/80 69/305/80
f 82/312/81 83/311/81 71/310/81 70/309/81
f 83/316/82 84/315/82 72/314/82 71/313/82
f 84/320/83 85/319/83 73/318/83 72/317/83
f 85/324/84 75/323/84 63/322/84 73/321/84
f 87/328/85 86/327/85 74/326/85 75/325/85
f 86/332/86 88/331/86 76/330/86 74/329/86
f 88/336/87 89/335/87 77/334/87 76/333/87
f 89/340/88 90/339/88 78/338/88 77/337/88
f 90/344/89 91/343/89 79/342/89 78/341/89
f 91/348/90 92/347/90 80/346/90 79/345/90
f 92/352/91 93/351/91 81/350/91 80/349/91
f 93/356/92 94/355/92 82/354/92 81/353/92
f 94/360/93 95/359/93 83/358/93 82/357/93
f 95/364/94 96/363/94 84/362/94 83/361/94
f 96/368/95 97/367/95 85/366/95 84/365/95
f 97/372/96 87/371/96 75/370/96 85/369/96
f 98/375/97 86/374/97 87/373/97
f 98/378/98 88/377/98 86/376/98
f 98/381/99 89/380/99 88/379/99
f 98/384/100 90/383/100 89/382/100
f 98/387/101 91/386/101 90/385/101
f 98/390/102 92/389/102 91/388/102
f 98/393/103 93/392/103 92/391/103
f 98/396/104 94/395/104 93/394/104
f 98/399/105 95/398/105 94/397/105
f 98/402/106 96/401/106 95/400/106
f 98/405/107 97/404/107 96/403/107
f 98/408/108 87/407/108 97/406/108
