mtllib Glow_Stick.mtl
usemtl phong1SG
# Blender v2.78 (sub 0) OBJ File: ''
# www.blender.org
o Cylinder
v -0.000000 -0.160493 -0.006883
v 0.000000 -0.159469 -0.007934
v -0.000000 0.160493 -0.006883
v 0.000000 0.159469 -0.007934
v 0.002986 -0.160493 -0.006201
v 0.003442 -0.159469 -0.007148
v 0.002986 0.160493 -0.006201
v 0.003442 0.159469 -0.007148
v 0.005381 -0.160493 -0.004292
v 0.006203 -0.159469 -0.004946
v 0.005381 0.160493 -0.004292
v 0.006203 0.159469 -0.004946
v 0.006711 -0.160493 -0.001532
v 0.007735 -0.159469 -0.001765
v 0.006711 0.160493 -0.001532
v 0.007735 0.159469 -0.001765
v 0.006711 -0.160493 0.001532
v 0.007735 -0.159469 0.001765
v 0.006711 0.160493 0.001532
v 0.007735 0.159469 0.001765
v 0.005381 -0.160493 0.004292
v 0.006203 -0.159469 0.004946
v 0.005381 0.160493 0.004292
v 0.006203 0.159469 0.004946
v 0.002986 -0.160493 0.006201
v 0.003442 -0.159469 0.007148
v 0.002986 0.160493 0.006201
v 0.003442 0.159469 0.007148
v 0.000000 -0.160493 0.006883
v 0.000000 -0.159469 0.007934
v 0.000000 0.160493 0.006883
v 0.000000 0.159469 0.007934
v -0.002986 -0.160493 0.006201
v -0.003442 -0.159469 0.007148
v -0.002986 0.160493 0.006201
v -0.003442 0.159469 0.007148
v -0.005381 -0.160493 0.004292
v -0.006203 -0.159469 0.004947
v -0.005381 0.160493 0.004292
v -0.006203 0.159469 0.004947
v -0.006711 -0.160493 0.001532
v -0.007735 -0.159469 0.001765
v -0.006711 0.160493 0.001532
v -0.007735 0.159469 0.001765
v -0.006711 -0.160493 -0.001532
v -0.007735 -0.159469 -0.001765
v -0.006711 0.160493 -0.001532
v -0.007735 0.159469 -0.001765
v -0.005381 -0.160493 -0.004292
v -0.006203 -0.159469 -0.004947
v -0.005381 0.160493 -0.004292
v -0.006203 0.159469 -0.004947
v -0.002986 -0.160493 -0.006201
v -0.003442 -0.159469 -0.007148
v -0.002986 0.160493 -0.006201
v -0.003442 0.159469 -0.007148
vt 0.0201 0.9873
vt 0.0021 0.0114
vt 0.0200 0.0139
vt 0.2156 0.9852
vt 0.1974 0.0143
vt 0.2152 0.0138
vt 0.1980 0.9850
vt 0.1796 0.0145
vt 0.1803 0.9850
vt 0.1618 0.0146
vt 0.1625 0.9851
vt 0.1440 0.0147
vt 0.1447 0.9852
vt 0.1262 0.0147
vt 0.1269 0.9853
vt 0.1084 0.0148
vt 0.1091 0.9853
vt 0.0906 0.0149
vt 0.0913 0.9854
vt 0.0728 0.0150
vt 0.0735 0.9855
vt 0.0551 0.0150
vt 0.0557 0.9857
vt 0.0375 0.0148
vt 0.0379 0.9862
vt 0.2331 0.9861
vt 0.2330 0.0127
vt 0.2933 0.1106
vt 0.2552 0.0922
vt 0.2816 0.0591
vt 0.2510 0.9886
vt 0.2510 0.0100
vt 0.2485 0.0021
vt 0.2323 0.9936
vt 0.2149 0.0059
vt 0.2321 0.0049
vt 0.2154 0.9930
vt 0.1980 0.9930
vt 0.1973 0.0063
vt 0.1803 0.9930
vt 0.1618 0.0065
vt 0.1796 0.0064
vt 0.1625 0.9931
vt 0.1440 0.0066
vt 0.1447 0.9932
vt 0.1262 0.0067
vt 0.1269 0.9933
vt 0.1091 0.9934
vt 0.0906 0.0069
vt 0.1084 0.0068
vt 0.0913 0.9935
vt 0.0728 0.0070
vt 0.0735 0.9936
vt 0.0558 0.9937
vt 0.0551 0.0070
vt 0.0382 0.9941
vt 0.0208 0.0064
vt 0.0377 0.0070
vt 0.0210 0.9951
vt 0.0046 0.9979
vt 0.0021 0.9900
vt 0.2992 0.0497
vt 0.2579 0.0168
vt 0.2763 0.0021
vt 0.3028 0.0693
vt 0.3080 0.0802
vt 0.3080 0.0922
vt 0.3028 0.1030
vt 0.2816 0.1132
vt 0.2699 0.1106
vt 0.2604 0.1030
vt 0.2552 0.0802
vt 0.2604 0.0693
vt 0.2699 0.0618
vt 0.2933 0.0618
vt 0.2486 0.9961
vt 0.0045 0.0039
vt 0.2992 0.0073
vt 0.3067 0.0168
vt 0.3093 0.0285
vt 0.3067 0.0402
vt 0.2883 0.0549
vt 0.2763 0.0549
vt 0.2654 0.0497
vt 0.2579 0.0402
vt 0.2552 0.0285
vt 0.2654 0.0073
vt 0.2883 0.0021
vn -0.4031 0.3701 -0.8370
vn 0.0000 -0.3701 -0.9290
vn -0.4031 -0.3701 -0.8370
vn 0.7263 0.3701 -0.5792
vn 0.9057 -0.3701 -0.2067
vn 0.7263 -0.3701 -0.5792
vn 0.9057 0.3701 -0.2067
vn 0.9057 -0.3701 0.2067
vn 0.9057 0.3701 0.2067
vn 0.7263 -0.3701 0.5792
vn 0.7263 0.3701 0.5792
vn 0.4031 -0.3701 0.8370
vn 0.4031 0.3701 0.8370
vn 0.0000 -0.3701 0.9290
vn 0.0000 0.3701 0.9290
vn -0.4031 -0.3701 0.8370
vn -0.4031 0.3701 0.8370
vn -0.7263 -0.3701 0.5792
vn -0.7263 0.3701 0.5792
vn -0.9057 -0.3701 0.2067
vn -0.9057 0.3701 0.2067
vn -0.9057 -0.3701 -0.2067
vn -0.9057 0.3701 -0.2067
vn -0.7263 -0.3701 -0.5792
vn -0.7263 0.3701 -0.5792
vn 0.4031 0.3701 -0.8370
vn 0.4031 -0.3701 -0.8370
vn -0.3292 0.9070 -0.2625
vn -0.1827 0.9070 0.3793
vn 0.4105 0.9070 0.0937
vn 0.0000 0.3701 -0.9290
vn 0.0000 -0.9070 -0.4211
vn 0.1827 0.9070 -0.3793
vn 0.3292 -0.9070 -0.2625
vn 0.1827 -0.9070 -0.3793
vn 0.3292 0.9070 -0.2625
vn 0.4105 0.9070 -0.0937
vn 0.4105 -0.9070 -0.0937
vn 0.3292 -0.9070 0.2625
vn 0.4105 -0.9070 0.0937
vn 0.3292 0.9070 0.2625
vn 0.1827 -0.9070 0.3793
vn 0.1827 0.9070 0.3793
vn 0.0000 -0.9070 0.4210
vn 0.0000 0.9070 0.4211
vn -0.3292 -0.9070 0.2625
vn -0.1827 -0.9070 0.3793
vn -0.3292 0.9070 0.2625
vn -0.4105 -0.9070 0.0937
vn -0.4105 0.9070 0.0937
vn -0.4105 0.9070 -0.0937
vn -0.4105 -0.9070 -0.0937
vn -0.1827 -0.9070 -0.3793
vn -0.3292 -0.9070 -0.2625
vn -0.1827 0.9070 -0.3793
vn 0.0000 0.9070 -0.4211
s 1
f 56/1/1 2/2/2 54/3/3
f 12/4/4 14/5/5 10/6/6
f 16/7/7 18/8/8 14/5/5
f 20/9/9 22/10/10 18/8/8
f 24/11/11 26/12/12 22/10/10
f 28/13/13 30/14/14 26/12/12
f 32/15/15 34/16/16 30/14/14
f 36/17/17 38/18/18 34/16/16
f 40/19/19 42/20/20 38/18/18
f 44/21/21 46/22/22 42/20/20
f 48/23/23 50/24/24 46/22/22
f 52/25/25 54/3/3 50/24/24
f 8/26/26 10/6/6 6/27/27
f 51/28/28 35/29/29 19/30/30
f 4/31/31 6/27/27 2/32/2
f 6/27/27 1/33/32 2/32/2
f 4/31/31 7/34/33 8/26/26
f 6/27/27 9/35/34 5/36/35
f 8/26/26 11/37/36 12/4/4
f 14/5/5 9/35/34 10/6/6
f 16/7/7 11/37/36 15/38/37
f 18/8/8 13/39/38 14/5/5
f 16/7/7 19/40/30 20/9/9
f 18/8/8 21/41/39 17/42/40
f 20/9/9 23/43/41 24/11/11
f 22/10/10 25/44/42 21/41/39
f 28/13/13 23/43/41 27/45/43
f 26/12/12 29/46/44 25/44/42
f 28/13/13 31/47/45 32/15/15
f 34/16/16 29/46/44 30/14/14
f 32/15/15 35/48/29 36/17/17
f 34/16/16 37/49/46 33/50/47
f 36/17/17 39/51/48 40/19/19
f 38/18/18 41/52/49 37/49/46
f 40/19/19 43/53/50 44/21/21
f 46/22/22 41/52/49 42/20/20
f 44/21/21 47/54/51 48/23/23
f 50/24/24 45/55/52 46/22/22
f 52/25/25 47/54/51 51/56/28
f 50/24/24 53/57/53 49/58/54
f 52/25/25 55/59/55 56/1/1
f 2/2/2 53/57/53 54/3/3
f 56/1/1 3/60/56 4/61/31
f 13/62/38 37/63/46 45/64/52
f 56/1/1 4/61/31 2/2/2
f 12/4/4 16/7/7 14/5/5
f 16/7/7 20/9/9 18/8/8
f 20/9/9 24/11/11 22/10/10
f 24/11/11 28/13/13 26/12/12
f 28/13/13 32/15/15 30/14/14
f 32/15/15 36/17/17 34/16/16
f 36/17/17 40/19/19 38/18/18
f 40/19/19 44/21/21 42/20/20
f 44/21/21 48/23/23 46/22/22
f 48/23/23 52/25/25 50/24/24
f 52/25/25 56/1/1 54/3/3
f 8/26/26 12/4/4 10/6/6
f 11/65/36 7/66/33 3/67/56
f 3/67/56 55/68/55 51/28/28
f 51/28/28 47/69/51 43/70/50
f 43/70/50 39/71/48 35/29/29
f 35/29/29 31/72/45 27/73/43
f 27/73/43 23/74/41 19/30/30
f 19/30/30 15/75/37 11/65/36
f 11/65/36 3/67/56 51/28/28
f 51/28/28 43/70/50 35/29/29
f 35/29/29 27/73/43 19/30/30
f 19/30/30 11/65/36 51/28/28
f 4/31/31 8/26/26 6/27/27
f 6/27/27 5/36/35 1/33/32
f 4/31/31 3/76/56 7/34/33
f 6/27/27 10/6/6 9/35/34
f 8/26/26 7/34/33 11/37/36
f 14/5/5 13/39/38 9/35/34
f 16/7/7 12/4/4 11/37/36
f 18/8/8 17/42/40 13/39/38
f 16/7/7 15/38/37 19/40/30
f 18/8/8 22/10/10 21/41/39
f 20/9/9 19/40/30 23/43/41
f 22/10/10 26/12/12 25/44/42
f 28/13/13 24/11/11 23/43/41
f 26/12/12 30/14/14 29/46/44
f 28/13/13 27/45/43 31/47/45
f 34/16/16 33/50/47 29/46/44
f 32/15/15 31/47/45 35/48/29
f 34/16/16 38/18/18 37/49/46
f 36/17/17 35/48/29 39/51/48
f 38/18/18 42/20/20 41/52/49
f 40/19/19 39/51/48 43/53/50
f 46/22/22 45/55/52 41/52/49
f 44/21/21 43/53/50 47/54/51
f 50/24/24 49/58/54 45/55/52
f 52/25/25 48/23/23 47/54/51
f 50/24/24 54/3/3 53/57/53
f 52/25/25 51/56/28 55/59/55
f 2/2/2 1/77/32 53/57/53
f 56/1/1 55/59/55 3/60/56
f 53/78/53 1/79/32 5/80/35
f 5/80/35 9/81/34 13/62/38
f 13/62/38 17/82/40 21/83/39
f 21/83/39 25/84/42 29/85/44
f 29/85/44 33/86/47 37/63/46
f 37/63/46 41/87/49 45/64/52
f 45/64/52 49/88/54 13/62/38
f 53/78/53 5/80/35 13/62/38
f 13/62/38 21/83/39 29/85/44
f 29/85/44 37/63/46 13/62/38
f 49/88/54 53/78/53 13/62/38
