mtllib materials.mtl
v 0.5711251 -0.1239511 -0.06940269
v 0.5704619 -0.113122 0.09022903
v 0.5813086 0.04614687 0.07946956
v 0.5819719 0.03531772 -0.08016217
v -0.5813085 -0.04614681 -0.07946956
v -0.5704618 0.113122 -0.09022903
v -0.5711251 0.1239511 0.06940269
v -0.5819718 -0.03531772 0.08016217
vn 0.9976909 -0.06735705 0.008715133
vn -0.9976909 0.06735705 -0.008715133
vn -0.06779198 -0.9954306 0.06724638
vn 0.06779198 0.9954306 -0.06724638
vn 0.004145793 -0.0676819 -0.9976984
vn -0.004145793 0.0676819 0.9976984
vt 0.01918592 -0.1367125
vt 0.03318137 -0.1444667
vt 0.04093555 -0.1304712
vt 0.02694009 -0.122717
vt -0.01918592 -0.1367125
vt -0.0269401 -0.122717
vt -0.04093555 -0.1304712
vt -0.03318138 -0.1444666
vt 0.1035444 0.0466002
vt 0.06636953 -0.06276439
vt 0.08151828 -0.0679137
vt 0.1186931 0.0414509
vt -0.1035444 0.0466002
vt -0.1186931 0.0414509
vt -0.08151828 -0.0679137
vt -0.06636953 -0.06276439
vt 0.1345037 0.008338533
vt 0.1208658 0.01670556
vt 0.060461 -0.08175176
vt 0.07409891 -0.0901188
vt -0.1345037 0.008338537
vt -0.07409891 -0.09011879
vt -0.060461 -0.08175176
vt -0.1208658 0.01670557
o group1534608205
g mesh1534608205
usemtl mat21
f 4/4/1 3/3/1 2/2/1 1/1/1
f 8/8/2 7/7/2 6/6/2 5/5/2
f 2/12/3 8/11/3 5/10/3 1/9/3
f 6/16/4 7/15/4 3/14/4 4/13/4
f 5/20/5 6/19/5 4/18/5 1/17/5
f 3/24/6 7/23/6 8/22/6 2/21/6
