# Blender v2.79 (sub 0) OBJ File: ''
# www.blender.org
mtllib PONI Cracked Pyra Glow.mtl
o Cone
v 0.000000 -1.000000 -1.000000
v 0.866025 -1.000000 0.500000
v -0.866025 -1.000000 0.500000
v 0.000000 1.000000 0.000000
v 0.181496 0.580853 0.104787
v 0.433770 -0.001749 0.250437
v 0.597216 -0.379212 0.344803
v -0.186979 0.568192 0.107952
v -0.474931 -0.096806 0.274201
v -0.698420 -0.612932 0.403233
v 0.000000 -0.592693 -0.796346
v 0.000000 -0.180518 -0.590259
v 0.000000 0.553479 -0.223260
v 0.031415 -1.186630 -1.198836
v 0.031415 -0.762650 -0.986846
v 0.761265 -0.501758 0.407736
v 1.057823 -1.186630 0.578954
v 1.029597 -1.186630 0.627842
v 0.733279 -0.502311 0.456763
v -0.850619 -0.788030 0.528192
v -1.023218 -1.186630 0.627842
v -1.051444 -1.186630 0.578954
v -0.881152 -0.793357 0.480636
v -0.025036 -0.768549 -0.989796
v -0.025036 -1.186630 -1.198836
v 0.003190 -1.237121 -1.168879
v 1.017767 -1.237121 0.588420
v -1.011387 -1.237121 0.588420
v -0.025036 -0.668188 -0.939615
v -0.837142 -0.691721 0.455227
v -0.597588 -0.138495 0.316921
v -0.025036 -0.239414 -0.725228
v -0.025036 -0.134177 -0.672610
v -0.555250 -0.040720 0.292477
v -0.229549 0.711454 0.104433
v -0.025036 0.695362 -0.257840
v -0.025036 0.798147 -0.206448
v -0.186509 0.810853 0.079584
v -0.025036 1.183758 -0.013643
v 0.719876 -0.406175 0.383841
v 0.031415 -0.652272 -0.931657
v 0.031415 -0.236171 -0.723607
v 0.553155 -0.021148 0.287584
v 0.511977 0.073947 0.263810
v 0.031415 -0.124105 -0.667574
v 0.031415 0.696503 -0.257270
v 0.229468 0.726374 0.100703
v 0.186962 0.824538 0.076162
v 0.031415 0.801079 -0.204982
v 0.031415 1.183758 -0.013643
v -0.802374 -0.676613 0.500338
v 0.692025 -0.407039 0.432945
v 0.523549 -0.017962 0.335676
v -0.566547 -0.131993 0.364183
v -0.520480 -0.025606 0.337587
v 0.481475 0.079205 0.311384
v 0.200643 0.727758 0.149245
v -0.200228 0.713984 0.152689
v -0.155813 0.816556 0.127046
v 0.157530 0.827323 0.124354
v 0.003190 1.183758 0.035246
vn -0.9488 0.1412 -0.2825
vn 0.6387 0.6235 -0.4509
vn -0.2775 0.1182 0.9534
vn -0.7166 -0.5615 0.4138
vn 0.6949 0.1238 -0.7084
vn -0.0772 0.6228 0.7786
vn -0.7209 0.1426 -0.6782
vn 0.0000 -0.5651 -0.8250
vn 0.2932 0.1105 0.9496
vn -0.7227 0.5554 -0.4114
vn 0.9666 0.1147 -0.2293
vn 0.7265 -0.5443 0.4194
vn 0.8128 0.3452 -0.4693
vn -0.0000 0.3494 0.9370
vn -0.8188 0.3257 -0.4727
vn 0.5547 -0.7721 0.3099
vn -0.3997 0.8650 -0.3033
vn -0.5919 -0.7659 -0.2510
vn 0.8452 0.2626 0.4655
vn -0.8705 -0.0555 -0.4890
vn -0.3006 -0.8967 0.3250
vn 0.2488 0.9133 -0.3226
vn 0.6980 -0.6831 -0.2149
vn -0.8471 0.2917 0.4443
vn 0.8752 -0.0758 -0.4779
vn 0.1411 -0.8904 -0.4329
vn -0.0927 0.9557 0.2794
vn 0.0862 -0.6311 0.7709
vn -0.0182 0.2918 -0.9563
vn 0.0112 -0.0781 0.9969
vn 0.8402 0.2425 -0.4851
vn -0.0000 0.2425 0.9701
vn -0.8402 0.2425 -0.4851
vn 0.0000 -1.0000 -0.0000
usemtl Material.001
s off
f 1//1 11//1 15//1 14//1
f 11//2 7//2 16//2 15//2
f 7//3 2//3 17//3 16//3
f 2//4 1//4 14//4 17//4
f 2//5 7//5 19//5 18//5
f 7//6 10//6 20//6 19//6
f 10//7 3//7 21//7 20//7
f 3//8 2//8 18//8 21//8
f 3//9 10//9 23//9 22//9
f 10//10 11//10 24//10 23//10
f 11//11 1//11 25//11 24//11
f 1//12 3//12 22//12 25//12
f 1//13 2//13 27//13 26//13
f 2//14 3//14 28//14 27//14
f 3//15 1//15 26//15 28//15
f 11//16 10//16 30//16 29//16
f 10//9 9//9 31//9 30//9
f 9//17 12//17 32//17 31//17
f 12//11 11//11 29//11 32//11
f 12//18 9//18 34//18 33//18
f 9//9 8//9 35//9 34//9
f 8//19 13//19 36//19 35//19
f 13//11 12//11 33//11 36//11
f 13//20 8//20 38//20 37//20
f 8//9 4//9 39//9 38//9
f 4//11 13//11 37//11 39//11
f 7//21 11//21 41//21 40//21
f 11//1 12//1 42//1 41//1
f 12//22 6//22 43//22 42//22
f 6//3 7//3 40//3 43//3
f 6//23 12//23 45//23 44//23
f 12//1 13//1 46//1 45//1
f 13//24 5//24 47//24 46//24
f 5//3 6//3 44//3 47//3
f 5//25 13//25 49//25 48//25
f 13//1 4//1 50//1 49//1
f 4//3 5//3 48//3 50//3
f 10//26 7//26 52//26 51//26
f 7//5 6//5 53//5 52//5
f 6//27 9//27 54//27 53//27
f 9//7 10//7 51//7 54//7
f 9//28 6//28 56//28 55//28
f 6//5 5//5 57//5 56//5
f 5//29 8//29 58//29 57//29
f 8//7 9//7 55//7 58//7
f 8//30 5//30 60//30 59//30
f 5//5 4//5 61//5 60//5
f 4//7 8//7 59//7 61//7
usemtl Material.002
f 14//31 15//31 16//31 17//31
f 18//32 19//32 20//32 21//32
f 22//33 23//33 24//33 25//33
f 26//34 27//34 28//34
f 29//33 30//33 31//33 32//33
f 33//33 34//33 35//33 36//33
f 37//33 38//33 39//33
f 40//31 41//31 42//31 43//31
f 44//31 45//31 46//31 47//31
f 48//31 49//31 50//31
f 51//32 52//32 53//32 54//32
f 55//32 56//32 57//32 58//32
f 59//32 60//32 61//32
